<mxfile host="app.diagrams.net" modified="2022-11-18T08:49:25.257Z" agent="5.0 (Windows NT 10.0; Win64; x64) AppleWebKit/537.36 (KHTML, like Gecko) Chrome/100.0.4896.60 Safari/537.36" etag="PTeCY9OkuA1mVi0CZA--" version="20.5.3" type="github">
  <diagram id="C5RBs43oDa-KdzZeNtuy" name="商户注册流程">
    <mxGraphModel dx="1422" dy="762" grid="1" gridSize="10" guides="1" tooltips="1" connect="1" arrows="1" fold="1" page="1" pageScale="1" pageWidth="827" pageHeight="1169" math="0" shadow="0">
      <root>
        <mxCell id="WIyWlLk6GJQsqaUBKTNV-0" />
        <mxCell id="WIyWlLk6GJQsqaUBKTNV-1" parent="WIyWlLk6GJQsqaUBKTNV-0" />
        <mxCell id="T_TCIOcFfUIDfXwIOGUq-2" style="edgeStyle=orthogonalEdgeStyle;rounded=0;orthogonalLoop=1;jettySize=auto;html=1;exitX=0.5;exitY=1;exitDx=0;exitDy=0;endArrow=block;endFill=0;" edge="1" parent="WIyWlLk6GJQsqaUBKTNV-1" source="WIyWlLk6GJQsqaUBKTNV-3" target="T_TCIOcFfUIDfXwIOGUq-1">
          <mxGeometry relative="1" as="geometry" />
        </mxCell>
        <mxCell id="WIyWlLk6GJQsqaUBKTNV-3" value="商户官网点击注册" style="rounded=1;whiteSpace=wrap;html=1;fontSize=12;glass=0;strokeWidth=1;shadow=0;" parent="WIyWlLk6GJQsqaUBKTNV-1" vertex="1">
          <mxGeometry x="160" y="80" width="120" height="40" as="geometry" />
        </mxCell>
        <mxCell id="T_TCIOcFfUIDfXwIOGUq-9" style="edgeStyle=orthogonalEdgeStyle;rounded=0;orthogonalLoop=1;jettySize=auto;html=1;exitX=0.5;exitY=1;exitDx=0;exitDy=0;endArrow=block;endFill=0;" edge="1" parent="WIyWlLk6GJQsqaUBKTNV-1" source="T_TCIOcFfUIDfXwIOGUq-1" target="T_TCIOcFfUIDfXwIOGUq-4">
          <mxGeometry relative="1" as="geometry" />
        </mxCell>
        <mxCell id="T_TCIOcFfUIDfXwIOGUq-1" value="填写卖家账号信息" style="rounded=1;whiteSpace=wrap;html=1;fontSize=12;glass=0;strokeWidth=1;shadow=0;" vertex="1" parent="WIyWlLk6GJQsqaUBKTNV-1">
          <mxGeometry x="160" y="160" width="120" height="40" as="geometry" />
        </mxCell>
        <mxCell id="T_TCIOcFfUIDfXwIOGUq-7" value="存在" style="edgeStyle=orthogonalEdgeStyle;rounded=0;orthogonalLoop=1;jettySize=auto;html=1;exitX=1;exitY=0.5;exitDx=0;exitDy=0;entryX=1;entryY=0.5;entryDx=0;entryDy=0;endArrow=block;endFill=0;" edge="1" parent="WIyWlLk6GJQsqaUBKTNV-1" source="T_TCIOcFfUIDfXwIOGUq-4" target="T_TCIOcFfUIDfXwIOGUq-1">
          <mxGeometry relative="1" as="geometry">
            <Array as="points">
              <mxPoint x="260" y="290" />
              <mxPoint x="320" y="290" />
              <mxPoint x="320" y="180" />
            </Array>
          </mxGeometry>
        </mxCell>
        <mxCell id="T_TCIOcFfUIDfXwIOGUq-17" value="不存在" style="edgeStyle=orthogonalEdgeStyle;rounded=0;orthogonalLoop=1;jettySize=auto;html=1;exitX=0.5;exitY=1;exitDx=0;exitDy=0;endArrow=block;endFill=0;" edge="1" parent="WIyWlLk6GJQsqaUBKTNV-1" source="T_TCIOcFfUIDfXwIOGUq-4" target="T_TCIOcFfUIDfXwIOGUq-10">
          <mxGeometry relative="1" as="geometry" />
        </mxCell>
        <mxCell id="T_TCIOcFfUIDfXwIOGUq-4" value="账号名是否存在" style="rhombus;whiteSpace=wrap;html=1;" vertex="1" parent="WIyWlLk6GJQsqaUBKTNV-1">
          <mxGeometry x="180" y="249" width="80" height="80" as="geometry" />
        </mxCell>
        <mxCell id="T_TCIOcFfUIDfXwIOGUq-15" value="无效" style="edgeStyle=orthogonalEdgeStyle;rounded=0;orthogonalLoop=1;jettySize=auto;html=1;entryX=1;entryY=0.25;entryDx=0;entryDy=0;endArrow=block;endFill=0;exitX=1;exitY=0.5;exitDx=0;exitDy=0;" edge="1" parent="WIyWlLk6GJQsqaUBKTNV-1" source="T_TCIOcFfUIDfXwIOGUq-10" target="T_TCIOcFfUIDfXwIOGUq-1">
          <mxGeometry relative="1" as="geometry">
            <Array as="points">
              <mxPoint x="260" y="430" />
              <mxPoint x="390" y="430" />
              <mxPoint x="390" y="170" />
            </Array>
          </mxGeometry>
        </mxCell>
        <mxCell id="T_TCIOcFfUIDfXwIOGUq-21" value="有效" style="edgeStyle=orthogonalEdgeStyle;rounded=0;orthogonalLoop=1;jettySize=auto;html=1;exitX=0.5;exitY=1;exitDx=0;exitDy=0;entryX=0.5;entryY=0;entryDx=0;entryDy=0;endArrow=block;endFill=0;" edge="1" parent="WIyWlLk6GJQsqaUBKTNV-1" source="T_TCIOcFfUIDfXwIOGUq-10" target="T_TCIOcFfUIDfXwIOGUq-18">
          <mxGeometry relative="1" as="geometry" />
        </mxCell>
        <mxCell id="T_TCIOcFfUIDfXwIOGUq-10" value="手机号是否有效" style="rhombus;whiteSpace=wrap;html=1;" vertex="1" parent="WIyWlLk6GJQsqaUBKTNV-1">
          <mxGeometry x="180" y="389" width="80" height="80" as="geometry" />
        </mxCell>
        <mxCell id="T_TCIOcFfUIDfXwIOGUq-22" style="edgeStyle=orthogonalEdgeStyle;rounded=0;orthogonalLoop=1;jettySize=auto;html=1;exitX=0.5;exitY=1;exitDx=0;exitDy=0;entryX=0.5;entryY=0;entryDx=0;entryDy=0;endArrow=block;endFill=0;" edge="1" parent="WIyWlLk6GJQsqaUBKTNV-1" source="T_TCIOcFfUIDfXwIOGUq-18" target="T_TCIOcFfUIDfXwIOGUq-19">
          <mxGeometry relative="1" as="geometry" />
        </mxCell>
        <mxCell id="T_TCIOcFfUIDfXwIOGUq-18" value="填写身份信息" style="rounded=1;whiteSpace=wrap;html=1;fontSize=12;glass=0;strokeWidth=1;shadow=0;" vertex="1" parent="WIyWlLk6GJQsqaUBKTNV-1">
          <mxGeometry x="160" y="532" width="120" height="40" as="geometry" />
        </mxCell>
        <mxCell id="T_TCIOcFfUIDfXwIOGUq-24" style="edgeStyle=orthogonalEdgeStyle;rounded=0;orthogonalLoop=1;jettySize=auto;html=1;exitX=0.5;exitY=1;exitDx=0;exitDy=0;entryX=0.5;entryY=0;entryDx=0;entryDy=0;endArrow=block;endFill=0;" edge="1" parent="WIyWlLk6GJQsqaUBKTNV-1" source="T_TCIOcFfUIDfXwIOGUq-19" target="T_TCIOcFfUIDfXwIOGUq-23">
          <mxGeometry relative="1" as="geometry" />
        </mxCell>
        <mxCell id="T_TCIOcFfUIDfXwIOGUq-19" value="填写结算信息" style="rounded=1;whiteSpace=wrap;html=1;fontSize=12;glass=0;strokeWidth=1;shadow=0;" vertex="1" parent="WIyWlLk6GJQsqaUBKTNV-1">
          <mxGeometry x="160" y="612" width="120" height="40" as="geometry" />
        </mxCell>
        <mxCell id="T_TCIOcFfUIDfXwIOGUq-26" value="不承诺" style="edgeStyle=orthogonalEdgeStyle;rounded=0;orthogonalLoop=1;jettySize=auto;html=1;entryX=1;entryY=0.5;entryDx=0;entryDy=0;endArrow=block;endFill=0;" edge="1" parent="WIyWlLk6GJQsqaUBKTNV-1" source="T_TCIOcFfUIDfXwIOGUq-23" target="T_TCIOcFfUIDfXwIOGUq-18">
          <mxGeometry relative="1" as="geometry">
            <Array as="points">
              <mxPoint x="420" y="740" />
              <mxPoint x="420" y="552" />
            </Array>
          </mxGeometry>
        </mxCell>
        <mxCell id="T_TCIOcFfUIDfXwIOGUq-29" style="edgeStyle=orthogonalEdgeStyle;rounded=0;orthogonalLoop=1;jettySize=auto;html=1;exitX=0.5;exitY=1;exitDx=0;exitDy=0;endArrow=block;endFill=0;" edge="1" parent="WIyWlLk6GJQsqaUBKTNV-1" source="T_TCIOcFfUIDfXwIOGUq-23" target="T_TCIOcFfUIDfXwIOGUq-28">
          <mxGeometry relative="1" as="geometry" />
        </mxCell>
        <mxCell id="T_TCIOcFfUIDfXwIOGUq-23" value="是否承诺信息有效" style="rhombus;whiteSpace=wrap;html=1;" vertex="1" parent="WIyWlLk6GJQsqaUBKTNV-1">
          <mxGeometry x="180" y="700" width="80" height="80" as="geometry" />
        </mxCell>
        <mxCell id="T_TCIOcFfUIDfXwIOGUq-30" value="否" style="edgeStyle=orthogonalEdgeStyle;rounded=0;orthogonalLoop=1;jettySize=auto;html=1;exitX=1;exitY=0.5;exitDx=0;exitDy=0;entryX=1;entryY=0;entryDx=0;entryDy=0;endArrow=block;endFill=0;" edge="1" parent="WIyWlLk6GJQsqaUBKTNV-1" source="T_TCIOcFfUIDfXwIOGUq-28" target="T_TCIOcFfUIDfXwIOGUq-1">
          <mxGeometry relative="1" as="geometry">
            <Array as="points">
              <mxPoint x="500" y="870" />
              <mxPoint x="500" y="160" />
            </Array>
          </mxGeometry>
        </mxCell>
        <mxCell id="T_TCIOcFfUIDfXwIOGUq-32" value="是" style="edgeStyle=orthogonalEdgeStyle;rounded=0;orthogonalLoop=1;jettySize=auto;html=1;exitX=0.5;exitY=1;exitDx=0;exitDy=0;endArrow=block;endFill=0;" edge="1" parent="WIyWlLk6GJQsqaUBKTNV-1" source="T_TCIOcFfUIDfXwIOGUq-28" target="T_TCIOcFfUIDfXwIOGUq-31">
          <mxGeometry relative="1" as="geometry" />
        </mxCell>
        <mxCell id="T_TCIOcFfUIDfXwIOGUq-28" value="是否注册成功" style="rhombus;whiteSpace=wrap;html=1;" vertex="1" parent="WIyWlLk6GJQsqaUBKTNV-1">
          <mxGeometry x="180" y="830" width="80" height="80" as="geometry" />
        </mxCell>
        <mxCell id="T_TCIOcFfUIDfXwIOGUq-31" value="结束" style="rounded=1;whiteSpace=wrap;html=1;fontSize=12;glass=0;strokeWidth=1;shadow=0;" vertex="1" parent="WIyWlLk6GJQsqaUBKTNV-1">
          <mxGeometry x="160" y="970" width="120" height="40" as="geometry" />
        </mxCell>
      </root>
    </mxGraphModel>
  </diagram>
</mxfile>
